<svg xmlns="http://www.w3.org/2000/svg" width="17.292" height="20.174" viewBox="0 0 17.292 20.174"><path d="M19.1,6.482a2.62,2.62,0,0,1,.54.856,2.6,2.6,0,0,1,.225.991V21.3a1.076,1.076,0,0,1-1.081,1.081H3.652A1.076,1.076,0,0,1,2.571,21.3V3.284A1.076,1.076,0,0,1,3.652,2.2H13.739a2.6,2.6,0,0,1,.991.225,2.62,2.62,0,0,1,.856.54Zm-5-2.747V7.968h4.233a1.23,1.23,0,0,0-.248-.462L14.561,3.982a1.23,1.23,0,0,0-.462-.248Zm4.323,17.2V9.409H13.739a1.076,1.076,0,0,1-1.081-1.081V3.645H4.012V20.937h14.41ZM7.4,18.3V19.5h3.164V18.3H9.72l1.16-1.813a1.614,1.614,0,0,0,.113-.186q.056-.107.084-.152t.039-.045h.023a.388.388,0,0,0,.056.113.629.629,0,0,0,.051.084q.028.039.068.09l.073.1,1.2,1.813h-.856V19.5h3.276V18.3h-.766l-2.162-3.073,2.2-3.175h.754v-1.2H11.892v1.2h.833l-1.16,1.79q-.045.079-.113.186t-.1.152l-.023.034h-.023a.387.387,0,0,0-.056-.113,1.343,1.343,0,0,0-.191-.259l-1.193-1.79h.856v-1.2H7.457v1.2h.766l2.128,3.062L8.166,18.3H7.4Z" transform="translate(-2.571 -2.203)"/></svg>